#N canvas 6 31 951 1015 10;
#X declare -lib pd-neimog;
#X obj 7 8 declare -lib pd-neimog;
#N canvas 0 50 450 300 rotate 0;
#N canvas 0 0 450 250 (subpatch) 0;
#X array rotate 8 float 2;
#X coords 0 100 8 0 269 151 1;
#X restore 119 19 graph;
#X obj 12 19 bng 25 250 50 0 empty empty empty 17 7 0 10 #e4e4e4 #000000 #373737;
#X obj 12 72 int;
#X obj 12 101 + 1;
#X obj 12 149 a.rotate rotate;
#X connect 1 0 2 0;
#X connect 2 0 3 0;
#X connect 3 0 2 1;
#X connect 3 0 4 0;
#X restore 7 116 pd rotate;
#N canvas 0 50 450 300 sum 0;
#N canvas 0 0 450 250 (subpatch) 0;
#X array sum 8 float 3;
#A 0 10.596 19.8676 27.8146 19.8676 21.5232 23.8411 29.4702 78.808;
#X coords 0 100 8 0 269 151 1;
#X restore 110 19 graph;
#X obj 12 19 bng 25 250 50 0 empty empty empty 17 7 0 10 #e4e4e4 #000000 #373737;
#X obj 12 190 a.sum sum 4;
#X obj 12 219 nbx 10 21 -1e+37 1e+37 0 0 empty empty empty 0 -8 0 10 #e4e4e4 #373737 #373737 0 256;
#X text 133 189 Sum the last 4 numbers of the array;
#X connect 1 0 2 0;
#X connect 2 0 3 0;
#X restore 7 138 pd sum;
#N canvas 0 50 450 300 fire 0;
#X obj 4 171 dac~;
#X obj 81 119 bng 25 250 50 0 empty empty empty 17 7 0 10 #e4e4e4 #000000 #373737;
#X obj 4 9 bng 25 250 50 0 empty empty empty 17 7 0 10 #e4e4e4 #000000 #373737;
#X obj 4 119 vst/c.fire;
#X obj 4 53 tabplay~ piano;
#X obj 198 91 switch~;
#X obj 198 9 tgl 60 0 empty empty empty 17 7 0 10 #e4e4e4 #232323 #373737 0 1;
#X obj 267 9 cnv 15 65 19 empty empty On/Off 2 10 0 20 #e3e3e3 #373737 0;
#X connect 2 0 4 0;
#X connect 3 0 0 0;
#X connect 3 0 0 1;
#X connect 4 0 3 0;
#X connect 4 1 1 0;
#X connect 6 0 5 0;
#X restore 7 226 pd fire;
#X obj 7 87 cnv 15 73 19 empty empty Arrays 2 10 0 20 #e3e3e3 #373737 0;
#X obj 7 199 cnv 15 73 19 empty empty VST3 2 10 0 20 #e3e3e3 #373737 0;
#N canvas 0 50 450 300 config 0;
#X obj 9 80 soundfiler;
#N canvas 0 0 450 250 (subpatch) 0;
#X array piano 391011 float 2;
#X coords 0 1 391011 -1 225 67 1;
#X restore 9 119 graph;
#X obj 9 9 loadbang;
#X msg 9 48 read -resize piano.wav piano;
#X obj 262 80 soundfiler;
#N canvas 0 0 450 250 (subpatch) 0;
#X array flute 336000 float 2;
#X coords 0 1 336000 -1 225 67 1;
#X restore 262 119 graph;
#X obj 262 9 loadbang;
#X msg 262 48 read -resize flute.wav flute;
#X obj 523 80 soundfiler;
#N canvas 0 0 450 250 (subpatch) 0;
#X array oboe 99567 float 2;
#X coords 0 1 99567 -1 225 67 1;
#X restore 523 119 graph;
#X obj 523 9 loadbang;
#X msg 523 48 read -resize oboe.wav oboe;
#X connect 2 0 3 0;
#X connect 3 0 0 0;
#X connect 6 0 7 0;
#X connect 7 0 4 0;
#X connect 10 0 11 0;
#X connect 11 0 8 0;
#X restore 7 37 pd config;
#X obj 7 306 cnv 15 73 19 empty empty Sampler 2 10 0 20 #e3e3e3 #373737 0;
#N canvas 0 50 450 300 musesampler 0;
#X obj 4 286 dac~;
#X obj 4 232 musesampler~ -i 167;
#X msg 239 24 noteon 72 127;
#X msg 266 71 noteon 72 127 25;
#X msg 252 49 noteon 73 127;
#X msg 277 94 noteon 56 127;
#X obj 4 50 pack f f;
#N canvas 733 172 450 300 pack 0;
#X obj 14 32 unpack f f;
#X obj 112 83 sel 0;
#X obj 14 163 pack f s f, f 12;
#X msg 112 119 symbol noteoff;
#X msg 226 119 symbol noteon;
#X msg 14 198 \$2 \$1 \$3;
#X obj 14 9 inlet;
#X obj 14 248 outlet;
#X obj 226 163 list;
#X obj 226 192 outlet;
#X connect 0 0 2 0;
#X connect 0 1 1 0;
#X connect 0 1 2 2;
#X connect 1 0 3 0;
#X connect 1 1 4 0;
#X connect 2 0 5 0;
#X connect 3 0 2 1;
#X connect 4 0 2 1;
#X connect 5 0 7 0;
#X connect 5 0 8 0;
#X connect 6 0 0 0;
#X connect 8 0 9 0;
#X restore 4 85 pd pack;
#X obj 4 24 notein, f 9;
#X text 65 23 Use your Midi Keyboard.;
#X obj 399 106 switch~;
#X obj 399 24 tgl 60 0 empty empty empty 17 7 0 10 #e4e4e4 #232323 #373737 0 1;
#X obj 468 24 cnv 15 65 19 empty empty On/Off 2 10 0 20 #e3e3e3 #373737 0;
#X obj 116 286 print;
#X msg 275 163 get instruments;
#X text 217 231 WARNING: You need to install musesampler in order to use this object., f 37;
#X connect 1 0 0 0;
#X connect 1 1 0 1;
#X connect 1 2 13 0;
#X connect 2 0 1 0;
#X connect 3 0 1 0;
#X connect 4 0 1 0;
#X connect 5 0 1 0;
#X connect 6 0 7 0;
#X connect 7 0 1 0;
#X connect 8 0 6 0;
#X connect 8 1 6 1;
#X connect 11 0 10 0;
#X connect 14 0 1 0;
#X restore 7 333 pd musesampler;
#X obj 288 87 cnv 15 80 19 empty empty Follower 2 10 0 20 #e3e3e3 #373737 0;
#N canvas 0 50 450 300 follower 0;
#X obj 9 74 follower~;
#X restore 288 116 pd follower;
#X obj 288 199 cnv 15 100 19 empty empty Divergence 2 10 0 20 #e3e3e3 #373737 0;
#N canvas 0 50 450 300 Kullback-Leibler 1;
#X obj 408 22 tgl 60 0 empty empty empty 17 7 0 10 #e4e4e4 #232323 #373737 0 1;
#X obj 477 22 cnv 15 65 19 empty empty On/Off 2 10 0 20 #e3e3e3 #373737 0;
#X obj 408 93 switch~ 4096;
#N canvas 0 0 450 250 (subpatch) 0;
#X array Kl-P 2048 float 0;
#X coords 0 1 2047 -1 406 115 1;
#X restore 672 51 graph;
#X text 672 13 Reference Timbre;
#N canvas 0 0 450 250 (subpatch) 0;
#X array Kl-Q 2048 float 0;
#X coords 0 1 2047 -1 406 118 1;
#X restore 672 188 graph;
#X obj 678 530 nbx 27 53 -1e+37 1e+37 0 0 empty empty empty 0 -8 0 10 #e4e4e4 #373737 #373737 0 256;
#X obj 678 368 bng 42 250 50 0 empty empty empty 17 7 0 10 #e4e4e4 #232323 #373737;
#N canvas 733 172 450 300 pack 0;
#X obj 14 32 unpack f f;
#X obj 112 83 sel 0;
#X obj 14 163 pack f s f, f 12;
#X msg 112 119 symbol noteoff;
#X msg 226 119 symbol noteon;
#X msg 14 198 \$2 \$1 \$3;
#X obj 14 9 inlet;
#X obj 14 248 outlet;
#X obj 226 163 list;
#X obj 226 192 outlet;
#X connect 0 0 2 0;
#X connect 0 1 1 0;
#X connect 0 1 2 2;
#X connect 1 0 3 0;
#X connect 1 1 4 0;
#X connect 2 0 5 0;
#X connect 3 0 2 1;
#X connect 4 0 2 1;
#X connect 5 0 7 0;
#X connect 5 0 8 0;
#X connect 6 0 0 0;
#X connect 8 0 9 0;
#X restore 40 277 pd pack;
#X obj 40 230 pack f f;
#X msg 809 352 norm \$1;
#X obj 809 314 tgl 25 0 empty empty empty 17 7 0 10 #e4e4e4 #232323 #373737 0 1;
#X obj 181 327 mtof;
#X obj 181 278 nbx 10 37 -1e+37 1e+37 0 0 empty empty empty 0 -8 0 10 #e4e4e4 #373737 #373737 0 256;
#X obj 26 62 metro 1000;
#X obj 26 108 t b b b;
#X obj 181 188 del 400 1 msec;
#X obj 40 153 nbx 10 38 -1e+37 1e+37 0 0 empty empty empty 0 -8 0 10 #e4e4e4 #373737 #373737 0 256;
#X obj 26 18 tgl 25 0 empty empty empty 17 7 0 10 #e4e4e4 #232323 #373737 0 1;
#X obj 132 14 bng 60 250 50 0 empty empty empty 17 7 0 10 #e4e4e4 #232323 #373737;
#X msg 826 422 exp \$1;
#X obj 826 384 tgl 25 0 empty empty empty 17 7 0 10 #e4e4e4 #232323 #373737 0 1;
#X obj 40 316 musesampler~ -i 103;
#X obj 170 566 nbx 25 47 -1e+37 1e+37 0 0 empty empty empty 0 -8 0 10 #e4e4e4 #373737 #373737 0 256;
#X obj 170 536 * 1000;
#N canvas 733 172 450 300 (subpatch) 0;
#X obj 34 191 rfft~, f 21;
#X obj 34 250 *~;
#X obj 140 250 *~;
#X obj 34 285 +~;
#X obj 233 191 rfft~, f 21;
#X obj 233 250 *~;
#X obj 339 250 *~;
#X obj 233 285 +~;
#X obj 233 323 /~ 4096;
#X obj 34 323 /~ 4096;
#X obj 34 95 inlet~;
#X obj 34 387 outlet~;
#N canvas 0 50 450 300 osc 0;
#X obj 27 132 osc~;
#X obj 27 47 nbx 7 19 -1e+37 1e+37 0 0 empty empty empty 0 -8 0 10 #e4e4e4 #373737 #373737 0 256;
#X obj 79 85 * 2;
#X obj 79 132 osc~;
#X obj 126 132 osc~;
#X obj 126 85 * 3;
#X obj 174 132 osc~;
#X obj 221 132 osc~;
#X obj 174 85 * 4;
#X obj 221 85 * 5;
#X obj 268 132 osc~;
#X obj 315 132 osc~;
#X obj 363 132 osc~;
#X obj 410 132 osc~;
#X obj 268 85 * 6;
#X obj 315 85 * 7;
#X obj 363 85 * 8;
#X obj 410 85 * 9;
#X obj 27 172 *~ 0.5;
#X obj 79 193 *~ 0.25;
#X obj 27 438 +~;
#X obj 27 496 outlet~;
#X obj 27 9 inlet;
#X obj 27 467 *~ 0.3;
#X connect 0 0 18 0;
#X connect 1 0 0 0;
#X connect 1 0 2 0;
#X connect 1 0 5 0;
#X connect 1 0 8 0;
#X connect 1 0 17 0;
#X connect 1 0 16 0;
#X connect 1 0 15 0;
#X connect 1 0 14 0;
#X connect 1 0 9 0;
#X connect 2 0 3 0;
#X connect 3 0 19 0;
#X connect 5 0 4 0;
#X connect 8 0 6 0;
#X connect 9 0 7 0;
#X connect 14 0 10 0;
#X connect 15 0 11 0;
#X connect 16 0 12 0;
#X connect 17 0 13 0;
#X connect 18 0 20 0;
#X connect 19 0 20 0;
#X connect 20 0 23 0;
#X connect 22 0 1 0;
#X connect 23 0 21 0;
#X restore 233 146 pd osc;
#X obj 233 95 inlet;
#X obj 468 250 loadbang;
#X obj 433 393 outlet~;
#X obj 483 101 bng 25 250 50 0 empty empty empty 17 7 0 10 #e4e4e4 #232323 #373737;
#X obj 510 166 del 1 100 msec;
#X obj 233 387 tabwrite~ Kl-P;
#X connect 0 0 1 1;
#X connect 0 0 1 0;
#X connect 0 1 2 0;
#X connect 0 1 2 1;
#X connect 1 0 3 0;
#X connect 2 0 3 1;
#X connect 3 0 9 0;
#X connect 4 0 5 1;
#X connect 4 0 5 0;
#X connect 4 1 6 0;
#X connect 4 1 6 1;
#X connect 5 0 7 0;
#X connect 6 0 7 1;
#X connect 7 0 8 0;
#X connect 8 0 15 0;
#X connect 8 0 18 0;
#X connect 9 0 11 0;
#X connect 10 0 0 0;
#X connect 12 0 4 0;
#X connect 13 0 12 0;
#X connect 13 0 16 0;
#X connect 14 0 18 0;
#X connect 16 0 17 0;
#X connect 17 0 18 0;
#X restore 40 422 pd;
#X f 14;
#X obj 132 422 outlet~;
#X msg 337 465 norm \$1;
#X obj 337 422 tgl 25 0 empty empty empty 17 7 0 10 #e4e4e4 #232323 #373737 0 1;
#X obj 408 422 tgl 25 0 empty empty empty 17 7 0 10 #e4e4e4 #232323 #373737 0 1;
#X msg 408 465 exp \$1;
#X obj 181 358 nbx 10 37 -1e+37 1e+37 0 0 empty empty empty 0 -8 0 10 #e4e4e4 #373737 #373737 0 256;
#X obj 170 507 kl~;
#X msg 467 465 beta \$1;
#X obj 467 422 nbx 5 20 -1e+37 1e+37 0 0 empty empty empty 0 -8 0 10 #e4e4e4 #373737 #373737 0 256;
#X text 678 592 Kl Divergence, f 67;
#X obj 678 498 kl Kl-P Kl-Q;
#X obj 40 556 tabwrite~ Kl-Q;
#X msg 893 456 beta \$1;
#X obj 893 422 nbx 5 20 -1e+37 1e+37 0 0 empty empty empty 0 -8 0 10 #e4e4e4 #373737 #373737 0 256;
#X obj 170 622 print;
#X obj 378 142 keyboard 16 80 2 4 0 0 empty empty;
#X obj 378 230 t b f;
#X connect 0 0 2 0;
#X connect 7 0 36 0;
#X connect 8 0 22 0;
#X connect 9 0 8 0;
#X connect 10 0 36 0;
#X connect 11 0 10 0;
#X connect 12 0 31 0;
#X connect 13 0 12 0;
#X connect 14 0 15 0;
#X connect 15 0 37 0 32.................vE...3.....bA...N....vZ....;
#X connect 15 1 17 0;
#X connect 15 2 16 0;
#X connect 16 0 7 0;
#X connect 18 0 14 0;
#X connect 19 0 15 0;
#X connect 20 0 36 0;
#X connect 21 0 20 0;
#X connect 22 0 26 0;
#X connect 22 0 25 0;
#X connect 23 0 40 0;
#X connect 24 0 23 0;
#X connect 25 0 32 0;
#X connect 25 0 37 0;
#X connect 25 1 32 1;
#X connect 27 0 32 0;
#X connect 28 0 27 0;
#X connect 29 0 30 0;
#X connect 30 0 32 0;
#X connect 31 0 25 1;
#X connect 32 0 24 0;
#X connect 33 0 32 0;
#X connect 34 0 33 0;
#X connect 36 0 6 0;
#X connect 38 0 36 0;
#X connect 39 0 38 0;
#X connect 41 0 42 0;
#X connect 41 0 8 0;
#X connect 42 0 19 0;
#X connect 42 1 17 0;
#X restore 288 226 pd Kullback-Leibler;
#X obj 288 269 dac~;
#N canvas 0 50 450 300 Renyi 0;
#X obj 408 20 tgl 60 0 empty empty empty 17 7 0 10 #e4e4e4 #232323 #373737 0 1;
#X obj 477 20 cnv 15 65 19 empty empty On/Off 2 10 0 20 #e3e3e3 #373737 0;
#X obj 408 91 switch~ 4096;
#N canvas 0 0 450 250 (subpatch) 0;
#X array P-\$0 2048 float 0;
#X coords 0 1 2047 -1 406 63 1;
#X restore 672 49 graph;
#X text 672 11 Reference Timbre;
#N canvas 0 0 450 250 (subpatch) 0;
#X array Q-\$0 2048 float 0;
#X coords 0 1 2047 -1 406 60 1;
#X restore 672 134 graph;
#X obj 489 538 nbx 27 53 -1e+37 1e+37 0 0 empty empty empty 0 -8 0 10 #e4e4e4 #373737 #373737 0 256;
#X obj 489 376 bng 42 250 50 0 empty empty empty 17 7 0 10 #e4e4e4 #232323 #373737;
#N canvas 733 172 450 300 pack 0;
#X obj 14 32 unpack f f;
#X obj 112 83 sel 0;
#X obj 14 163 pack f s f, f 12;
#X msg 112 119 symbol noteoff;
#X msg 226 119 symbol noteon;
#X msg 14 198 \$2 \$1 \$3;
#X obj 14 9 inlet;
#X obj 14 248 outlet;
#X obj 226 163 list;
#X obj 226 192 outlet;
#X connect 0 0 2 0;
#X connect 0 1 1 0;
#X connect 0 1 2 2;
#X connect 1 0 3 0;
#X connect 1 1 4 0;
#X connect 2 0 5 0;
#X connect 3 0 2 1;
#X connect 4 0 2 1;
#X connect 5 0 7 0;
#X connect 5 0 8 0;
#X connect 6 0 0 0;
#X connect 8 0 9 0;
#X restore 40 275 pd pack;
#X obj 40 244 pack f f;
#X msg 620 360 norm \$1;
#X obj 620 322 tgl 25 0 empty empty empty 17 7 0 10 #e4e4e4 #232323 #373737 0 1;
#X obj 181 325 mtof;
#X obj 181 276 nbx 10 37 -1e+37 1e+37 0 0 empty empty empty 0 -8 0 10 #e4e4e4 #373737 #373737 0 256;
#X obj 26 60 metro 1000;
#X obj 40 215 makenote 60 750;
#X obj 26 106 t b b b;
#X obj 181 186 del 400 1 msec;
#X obj 40 186 nbx 4 18 -1e+37 1e+37 0 0 empty empty empty 0 -8 0 10 #e4e4e4 #373737 #373737 0 256;
#X obj 26 16 tgl 25 0 empty empty empty 17 7 0 10 #e4e4e4 #232323 #373737 0 1;
#X obj 112 60 bng 25 250 50 0 empty empty empty 17 7 0 10 #e4e4e4 #232323 #373737;
#X msg 637 430 exp \$1;
#X obj 637 392 tgl 25 0 empty empty empty 17 7 0 10 #e4e4e4 #232323 #373737 0 1;
#X obj 40 314 musesampler~ -i 103;
#X obj 170 564 nbx 25 47 -1e+37 1e+37 0 0 empty empty empty 0 -8 0 10 #e4e4e4 #373737 #373737 0 256;
#X obj 170 534 * 1000;
#X obj 170 505 renyi~;
#X obj 489 506 renyi P-\$0 Q-\$0;
#X obj 40 505 tabwrite~ Q-\$0;
#X msg 677 467 alpha -0.3;
#X text 483 614 BAD IMPLEMENTED YET, f 67;
#N canvas 733 172 450 300 (subpatch) 0;
#X obj 34 191 rfft~, f 21;
#X obj 34 250 *~;
#X obj 140 250 *~;
#X obj 34 285 +~;
#X obj 233 191 rfft~, f 21;
#X obj 233 250 *~;
#X obj 339 250 *~;
#X obj 233 285 +~;
#X obj 233 323 /~ 4096;
#X obj 34 323 /~ 4096;
#X obj 34 95 inlet~;
#X obj 34 387 outlet~;
#N canvas 0 50 450 300 osc 0;
#X obj 27 132 osc~;
#X obj 27 47 nbx 7 19 -1e+37 1e+37 0 0 empty empty empty 0 -8 0 10 #e4e4e4 #373737 #373737 0 256;
#X obj 79 85 * 2;
#X obj 79 132 osc~;
#X obj 126 132 osc~;
#X obj 126 85 * 3;
#X obj 174 132 osc~;
#X obj 221 132 osc~;
#X obj 174 85 * 4;
#X obj 221 85 * 5;
#X obj 268 132 osc~;
#X obj 315 132 osc~;
#X obj 363 132 osc~;
#X obj 410 132 osc~;
#X obj 268 85 * 6;
#X obj 315 85 * 7;
#X obj 363 85 * 8;
#X obj 410 85 * 9;
#X obj 27 172 *~ 0.5;
#X obj 79 193 *~ 0.25;
#X obj 27 438 +~;
#X obj 27 496 outlet~;
#X obj 27 9 inlet;
#X obj 27 467 *~ 0.3;
#X connect 0 0 18 0;
#X connect 1 0 0 0;
#X connect 1 0 2 0;
#X connect 1 0 5 0;
#X connect 1 0 8 0;
#X connect 1 0 17 0;
#X connect 1 0 16 0;
#X connect 1 0 15 0;
#X connect 1 0 14 0;
#X connect 1 0 9 0;
#X connect 2 0 3 0;
#X connect 3 0 19 0;
#X connect 5 0 4 0;
#X connect 8 0 6 0;
#X connect 9 0 7 0;
#X connect 14 0 10 0;
#X connect 15 0 11 0;
#X connect 16 0 12 0;
#X connect 17 0 13 0;
#X connect 18 0 20 0;
#X connect 19 0 20 0;
#X connect 20 0 23 0;
#X connect 22 0 1 0;
#X connect 23 0 21 0;
#X restore 233 146 pd osc;
#X obj 233 95 inlet;
#X obj 233 387 tabwrite~ P-\$0;
#X obj 468 250 loadbang;
#X obj 433 393 outlet~;
#X obj 483 101 bng 25 250 50 0 empty empty empty 17 7 0 10 #e4e4e4 #232323 #373737;
#X obj 510 166 del 1 100 msec;
#X connect 0 0 1 1;
#X connect 0 0 1 0;
#X connect 0 1 2 0;
#X connect 0 1 2 1;
#X connect 1 0 3 0;
#X connect 2 0 3 1;
#X connect 3 0 9 0;
#X connect 4 0 5 1;
#X connect 4 0 5 0;
#X connect 4 1 6 0;
#X connect 4 1 6 1;
#X connect 5 0 7 0;
#X connect 6 0 7 1;
#X connect 7 0 8 0;
#X connect 8 0 14 0;
#X connect 8 0 16 0;
#X connect 9 0 11 0;
#X connect 10 0 0 0;
#X connect 12 0 4 0;
#X connect 13 0 12 0;
#X connect 13 0 17 0;
#X connect 15 0 14 0;
#X connect 17 0 18 0;
#X connect 18 0 14 0;
#X restore 40 420 pd;
#X f 14;
#X obj 132 420 outlet~;
#X msg 337 463 norm \$1;
#X obj 337 420 tgl 25 0 empty empty empty 17 7 0 10 #e4e4e4 #232323 #373737 0 1;
#X obj 408 420 tgl 25 0 empty empty empty 17 7 0 10 #e4e4e4 #232323 #373737 0 1;
#X msg 408 463 exp \$1;
#X obj 181 356 nbx 10 37 -1e+37 1e+37 0 0 empty empty empty 0 -8 0 10 #e4e4e4 #373737 #373737 0 256;
#X connect 0 0 2 0;
#X connect 7 0 27 0;
#X connect 8 0 23 0;
#X connect 9 0 8 0;
#X connect 10 0 27 0;
#X connect 11 0 10 0;
#X connect 12 0 37 0;
#X connect 13 0 12 0;
#X connect 14 0 16 0;
#X connect 15 0 9 0;
#X connect 15 1 9 1;
#X connect 16 1 18 0;
#X connect 16 2 17 0;
#X connect 17 0 7 0;
#X connect 18 0 15 0;
#X connect 19 0 14 0;
#X connect 20 0 16 0;
#X connect 21 0 27 0;
#X connect 22 0 21 0;
#X connect 23 0 32 0;
#X connect 23 0 31 0;
#X connect 25 0 24 0;
#X connect 26 0 25 0;
#X connect 27 0 6 0;
#X connect 29 0 27 0;
#X connect 31 0 26 0;
#X connect 31 0 28 0;
#X connect 31 1 26 1;
#X connect 33 0 26 0;
#X connect 34 0 33 0;
#X connect 35 0 36 0;
#X connect 36 0 26 0;
#X connect 37 0 31 1;
#X restore 423 226 pd Renyi;
#X text 163 7 WARNING: This library requires else library.;
#X connect 12 0 13 0;
#X connect 12 0 13 1;
#X connect 14 0 13 0;
#X connect 14 0 13 1;
