#N canvas 827 239 527 327 12;
#X declare -path else;
#X obj 14 473 outlet~;
#X obj 14 39 inlet~;
#X obj 82 473 outlet;
#X msg 45 163 vis 1;
#X obj 45 123 t b b, f 19;
#X msg 159 163 vis 0;
#X obj 321 70 pdcontrol;
#X msg 321 42 args 0;
#X obj 321 11 loadbang;
#X obj 321 163 route early hall plate room;
#X msg 464 254 Choose between early|hall|plate|room;
#X obj 464 283 print Error;
#X obj 321 99 route symbol;
#X msg 504 134 Choose between early|hall|plate|room;
#X obj 504 163 print ErrorAQUI;
#X obj 321 134 list trim;
#X msg 174 214 open -e Dragonfly_Early_Reflections.vst3;
#X obj 14 403 vstplugin~ 1 1;
#X msg 237 262 open -e Dragonfly_Hall_Reverb.vst3;
#X msg 331 295 open -e Dragonfly_Plate_Reverb.vst3;
#X msg 384 349 open -e Dragonfly_Room_Reverb.vst3;
#X obj 45 96 else/click;
#X obj 94 39 declare -path else;
#X obj 207 543 s \$0-msg;
#X msg 207 504 program_write \$1 \$2;
#X obj 201 427 symbol;
#X connect 1 0 17 0;
#X connect 3 0 17 0;
#X connect 4 0 3 0;
#X connect 4 1 5 0;
#X connect 5 0 17 0;
#X connect 6 0 12 0;
#X connect 7 0 6 0;
#X connect 8 0 7 0;
#X connect 9 0 16 0;
#X connect 9 1 18 0;
#X connect 9 2 19 0;
#X connect 9 3 20 0;
#X connect 9 4 10 0;
#X connect 10 0 11 0;
#X connect 12 0 15 0;
#X connect 12 1 13 0;
#X connect 13 0 14 0;
#X connect 15 0 9 0;
#X connect 16 0 17 0;
#X connect 17 0 0 0;
#X connect 17 1 2 0;
#X connect 18 0 17 0;
#X connect 19 0 17 0;
#X connect 20 0 17 0;
#X connect 21 0 4 0;
#X connect 24 0 23 0;
